<?xml version="1.0" encoding="iso-8859-1"?>
<!-- Generator: Adobe Illustrator 16.0.0, SVG Export Plug-In . SVG Version: 6.00 Build 0)  -->
<!DOCTYPE svg PUBLIC "-//W3C//DTD SVG 1.1//EN" "http://www.w3.org/Graphics/SVG/1.1/DTD/svg11.dtd">
<svg version="1.1" id="Capa_1" xmlns="http://www.w3.org/2000/svg" xmlns:xlink="http://www.w3.org/1999/xlink" x="0px" y="0px"
	 width="146.388px" height="146.388px" viewBox="0 0 146.388 146.388" style="enable-background:new 0 0 146.388 146.388;"
	 xml:space="preserve">
<g>
	<g>
		<path d="M120.16,37.376c-5.108-13.873-18.058-25.166-22.928-29.414c-0.67-0.589-1.254-1.1-1.487-1.328
			C93.424,4.321,84.451,0,75.544,0c-2.247,0-4.385,0.269-6.35,0.812C59.846,3.374,51.973,9.671,49.383,11.74
			c-0.282,0.229-0.482,0.391-0.597,0.475c-2.024,1.444-1.78,4.108-0.693,5.969l1.44,2.133c-8.219,4.377-23.923,18.761-25.182,20.186
			c-3.313,3.76-2.009,9.82-0.323,12.984c1.384,2.595,3.682,3.514,5.533,4.024c0.467,2.049,1.825,3.651,2.866,4.497
			c0.785,0.868,2.219,1.742,4.096,1.742c1.414,0,2.902-0.482,4.445-1.455c6.528-4.228,12.159-6.371,16.75-6.371
			c2.75,0,4.753,0.797,6.183,1.805C47.298,70.51,41.171,98.686,40.948,107.46c-0.12,4.661,0.785,7.805,1.681,9.76
			c-2.938,1.838-4.905,5.088-4.905,8.806c0,2.203,0.698,4.239,1.869,5.926H37.47c-3.313,0-5.9,3.174-5.9,7.216
			c0,4.047,2.595,7.221,5.9,7.221h78.424c3.311,0,5.9-3.174,5.9-7.221c0-4.042-2.59-7.216-5.9-7.216h-2.128
			c1.173-1.687,1.869-3.723,1.869-5.926c0-4.215-2.524-7.841-6.14-9.466c2.021-3.382,5.175-9.085,6.2-13.142
			c1.396-5.576,7.703-27.787,7.774-28.01l0.076-0.386C123.648,74.128,125.974,53.158,120.16,37.376z M115.894,136.82
			c0.259,0,1.036,0.833,1.036,2.347c0,1.513-0.777,2.351-1.036,2.351H37.47c-0.259,0-1.033-0.827-1.033-2.351
			c0-1.514,0.774-2.347,1.033-2.347H115.894z M110.765,126.025c0,3.036-2.473,5.514-5.515,5.514H48.113
			c-3.042,0-5.517-2.478-5.517-5.514c0-3.047,2.476-5.521,5.517-5.521h57.142C108.292,120.505,110.765,122.979,110.765,126.025z
			 M118.728,74.275c-0.676,2.381-6.394,22.525-7.755,27.949c-1.041,4.139-4.991,10.791-6.611,13.416H48.113h-0.835
			c-0.62-1.173-1.577-3.712-1.462-8.059c0.188-7.354,6.208-36.725,23.216-47.51l2.295-1.455l-1.696-2.12
			c-1.986-2.48-5.662-5.441-11.908-5.441c-5.542,0-12.067,2.41-19.37,7.134c-0.958,0.604-1.554,0.693-1.826,0.693
			c-0.229,0-0.368-0.063-0.442-0.111l-0.061-0.135l-0.432-0.333c-0.015-0.01-1.467-1.163-1.315-2.437l0.244-2.082l-2.023-0.551
			c-0.249-0.065-0.516-0.129-0.79-0.195c-1.722-0.427-2.808-0.759-3.385-1.841c-1.066-2.003-1.79-5.809-0.322-7.472
			c0.993-1.125,6.357-5.977,12.187-10.717c8.138-6.629,11.918-8.797,12.959-9.069l5.21,0.714l-6.083-8.965
			c0-0.005,0-0.01-0.005-0.02c0.051-0.043,0.104-0.084,0.155-0.125c2.392-1.915,9.676-7.739,18.055-10.037
			c1.549-0.427,3.25-0.64,5.065-0.64c7.947,0,15.539,3.994,16.752,5.21c0.346,0.348,0.899,0.827,1.732,1.554
			c4.615,4.024,16.884,14.726,21.561,27.431C120.728,52.991,118.941,72.173,118.728,74.275z"/>
		<path d="M99.294,43.975c2.925-28.37-27.241-30.092-27.241-30.092s24.799,5.84,21.63,34.241
			c-3.164,28.406,16.904,32.474,16.904,32.474S96.497,71.129,99.294,43.975z"/>
	</g>
</g>
<g>
</g>
<g>
</g>
<g>
</g>
<g>
</g>
<g>
</g>
<g>
</g>
<g>
</g>
<g>
</g>
<g>
</g>
<g>
</g>
<g>
</g>
<g>
</g>
<g>
</g>
<g>
</g>
<g>
</g>
</svg>
